<svg width="800" height="86" viewBox="0 0 800 86" fill="none" xmlns="http://www.w3.org/2000/svg">
<path d="M2.91 66C2.25 66 1.71 65.79 1.29 65.37C0.87 64.95 0.66 64.41 0.66 63.75V5.25C0.66 4.59 0.87 4.05 1.29 3.63C1.71 3.21 2.25 3 2.91 3H25.5C31.5 3 36.51 3.96 40.53 5.88C44.55 7.74 47.61 10.5 49.71 14.16C51.87 17.76 53.01 22.23 53.13 27.57C53.19 30.21 53.22 32.52 53.22 34.5C53.22 36.48 53.19 38.76 53.13 41.34C52.95 46.92 51.84 51.54 49.8 55.2C47.76 58.86 44.76 61.59 40.8 63.39C36.84 65.13 31.89 66 25.95 66H2.91ZM14.97 54.39H25.5C28.5 54.39 30.96 53.94 32.88 53.04C34.8 52.14 36.21 50.73 37.11 48.81C38.07 46.83 38.58 44.28 38.64 41.16C38.7 39.42 38.73 37.86 38.73 36.48C38.79 35.1 38.79 33.72 38.73 32.34C38.73 30.96 38.7 29.43 38.64 27.75C38.52 23.25 37.35 19.95 35.13 17.85C32.97 15.69 29.61 14.61 25.05 14.61H14.97V54.39ZM69.2386 66C68.6386 66 68.1286 65.79 67.7086 65.37C67.2886 64.95 67.0786 64.41 67.0786 63.75V21.45C67.0786 20.79 67.2886 20.25 67.7086 19.83C68.1286 19.41 68.6386 19.2 69.2386 19.2H78.2386C78.8986 19.2 79.4386 19.41 79.8586 19.83C80.2786 20.25 80.4886 20.79 80.4886 21.45V63.75C80.4886 64.41 80.2786 64.95 79.8586 65.37C79.4386 65.79 78.8986 66 78.2386 66H69.2386ZM68.9686 12C68.3686 12 67.8586 11.79 67.4386 11.37C67.0186 10.95 66.8086 10.41 66.8086 9.75V2.55C66.8086 1.89 67.0186 1.35 67.4386 0.929996C67.8586 0.449998 68.3686 0.209999 68.9686 0.209999H78.4186C79.0786 0.209999 79.6186 0.449998 80.0386 0.929996C80.5186 1.35 80.7586 1.89 80.7586 2.55V9.75C80.7586 10.41 80.5186 10.95 80.0386 11.37C79.6186 11.79 79.0786 12 78.4186 12H68.9686ZM117.336 85.8C112.896 85.8 109.206 85.2 106.266 84C103.326 82.86 100.986 81.45 99.2459 79.77C97.5659 78.15 96.3659 76.53 95.6459 74.91C94.9259 73.29 94.5359 72.03 94.4759 71.13C94.4159 70.47 94.6259 69.93 95.1059 69.51C95.5859 69.09 96.1259 68.88 96.7259 68.88H106.356C106.896 68.88 107.346 69 107.706 69.24C108.126 69.54 108.456 70.02 108.696 70.68C108.996 71.4 109.416 72.15 109.956 72.93C110.496 73.77 111.306 74.46 112.386 75C113.526 75.54 115.026 75.81 116.886 75.81C118.986 75.81 120.726 75.51 122.106 74.91C123.486 74.31 124.506 73.29 125.166 71.85C125.886 70.41 126.246 68.46 126.246 66V59.97C124.806 61.53 122.976 62.82 120.756 63.84C118.596 64.86 115.926 65.37 112.746 65.37C109.626 65.37 106.866 64.89 104.466 63.93C102.126 62.91 100.176 61.5 98.6159 59.7C97.0559 57.84 95.8559 55.62 95.0159 53.04C94.1759 50.46 93.6959 47.55 93.5759 44.31C93.5159 42.69 93.5159 41.1 93.5759 39.54C93.6959 36.42 94.1759 33.57 95.0159 30.99C95.8559 28.41 97.0559 26.19 98.6159 24.33C100.176 22.41 102.126 20.94 104.466 19.92C106.866 18.84 109.626 18.3 112.746 18.3C116.046 18.3 118.866 18.93 121.206 20.19C123.546 21.45 125.466 23.01 126.966 24.87V21.45C126.966 20.85 127.176 20.34 127.596 19.92C128.016 19.44 128.526 19.2 129.126 19.2H137.946C138.546 19.2 139.056 19.44 139.476 19.92C139.956 20.34 140.196 20.85 140.196 21.45L140.286 64.74C140.286 69.24 139.416 73.05 137.676 76.17C135.936 79.29 133.356 81.66 129.936 83.28C126.576 84.96 122.376 85.8 117.336 85.8ZM116.886 54.84C119.046 54.84 120.786 54.36 122.106 53.4C123.486 52.38 124.506 51.12 125.166 49.62C125.826 48.06 126.186 46.44 126.246 44.76C126.306 44.1 126.336 43.17 126.336 41.97C126.336 40.71 126.306 39.75 126.246 39.09C126.186 37.41 125.826 35.82 125.166 34.32C124.506 32.76 123.486 31.5 122.106 30.54C120.786 29.58 119.046 29.1 116.886 29.1C114.606 29.1 112.806 29.61 111.486 30.63C110.166 31.59 109.206 32.88 108.606 34.5C108.006 36.12 107.646 37.89 107.526 39.81C107.466 41.25 107.466 42.66 107.526 44.04C107.646 46.02 108.006 47.82 108.606 49.44C109.206 51.06 110.166 52.38 111.486 53.4C112.806 54.36 114.606 54.84 116.886 54.84ZM157.386 66C156.786 66 156.276 65.79 155.856 65.37C155.436 64.95 155.226 64.41 155.226 63.75V21.45C155.226 20.79 155.436 20.25 155.856 19.83C156.276 19.41 156.786 19.2 157.386 19.2H166.386C167.046 19.2 167.586 19.41 168.006 19.83C168.426 20.25 168.636 20.79 168.636 21.45V63.75C168.636 64.41 168.426 64.95 168.006 65.37C167.586 65.79 167.046 66 166.386 66H157.386ZM157.116 12C156.516 12 156.006 11.79 155.586 11.37C155.166 10.95 154.956 10.41 154.956 9.75V2.55C154.956 1.89 155.166 1.35 155.586 0.929996C156.006 0.449998 156.516 0.209999 157.116 0.209999H166.566C167.226 0.209999 167.766 0.449998 168.186 0.929996C168.666 1.35 168.906 1.89 168.906 2.55V9.75C168.906 10.41 168.666 10.95 168.186 11.37C167.766 11.79 167.226 12 166.566 12H157.116ZM206.023 66C202.303 66 199.123 65.4 196.483 64.2C193.843 62.94 191.833 61.02 190.453 58.44C189.133 55.86 188.473 52.62 188.473 48.72V29.82H181.453C180.793 29.82 180.253 29.61 179.833 29.19C179.413 28.77 179.203 28.23 179.203 27.57V21.45C179.203 20.79 179.413 20.25 179.833 19.83C180.253 19.41 180.793 19.2 181.453 19.2H188.473V4.34999C188.473 3.69 188.683 3.15 189.103 2.73C189.583 2.31 190.123 2.1 190.723 2.1H199.543C200.203 2.1 200.743 2.31 201.163 2.73C201.583 3.15 201.793 3.69 201.793 4.34999V19.2H213.043C213.643 19.2 214.153 19.41 214.573 19.83C214.993 20.25 215.203 20.79 215.203 21.45V27.57C215.203 28.23 214.993 28.77 214.573 29.19C214.153 29.61 213.643 29.82 213.043 29.82H201.793V47.64C201.793 49.92 202.183 51.72 202.963 53.04C203.803 54.3 205.243 54.93 207.283 54.93H213.853C214.453 54.93 214.963 55.14 215.383 55.56C215.803 55.98 216.013 56.49 216.013 57.09V63.75C216.013 64.41 215.803 64.95 215.383 65.37C214.963 65.79 214.453 66 213.853 66H206.023ZM241.235 66.9C238.055 66.9 235.205 66.3 232.685 65.1C230.165 63.84 228.155 62.16 226.655 60.06C225.155 57.96 224.405 55.62 224.405 53.04C224.405 48.78 226.115 45.42 229.535 42.96C233.015 40.5 237.575 38.82 243.215 37.92L255.005 36.21V34.59C255.005 32.25 254.465 30.45 253.385 29.19C252.305 27.93 250.415 27.3 247.715 27.3C245.735 27.3 244.145 27.69 242.945 28.47C241.745 29.25 240.815 30.27 240.155 31.53C239.675 32.31 238.985 32.7 238.085 32.7H229.535C228.875 32.7 228.365 32.52 228.005 32.16C227.645 31.74 227.495 31.26 227.555 30.72C227.555 29.7 227.945 28.5 228.725 27.12C229.505 25.74 230.705 24.39 232.325 23.07C233.945 21.69 236.015 20.55 238.535 19.65C241.055 18.75 244.145 18.3 247.805 18.3C251.585 18.3 254.825 18.75 257.525 19.65C260.225 20.55 262.385 21.81 264.005 23.43C265.625 25.05 266.825 26.94 267.605 29.1C268.385 31.2 268.775 33.48 268.775 35.94V63.75C268.775 64.41 268.565 64.95 268.145 65.37C267.725 65.79 267.185 66 266.525 66H257.705C257.105 66 256.595 65.79 256.175 65.37C255.755 64.95 255.545 64.41 255.545 63.75V60.42C254.765 61.56 253.715 62.64 252.395 63.66C251.075 64.62 249.485 65.4 247.625 66C245.825 66.6 243.695 66.9 241.235 66.9ZM244.835 57.54C246.815 57.54 248.585 57.12 250.145 56.28C251.705 55.44 252.935 54.15 253.835 52.41C254.735 50.67 255.185 48.48 255.185 45.84V44.31L246.815 45.66C243.575 46.2 241.205 47.01 239.705 48.09C238.205 49.17 237.455 50.49 237.455 52.05C237.455 53.19 237.785 54.18 238.445 55.02C239.165 55.86 240.095 56.49 241.235 56.91C242.375 57.33 243.575 57.54 244.835 57.54ZM285.522 66C284.862 66 284.322 65.79 283.902 65.37C283.482 64.95 283.272 64.41 283.272 63.75V4.34999C283.272 3.69 283.482 3.15 283.902 2.73C284.322 2.31 284.862 2.1 285.522 2.1H294.522C295.122 2.1 295.632 2.31 296.052 2.73C296.472 3.15 296.682 3.69 296.682 4.34999V63.75C296.682 64.41 296.472 64.95 296.052 65.37C295.632 65.79 295.122 66 294.522 66H285.522ZM338.36 66C337.76 66 337.22 65.79 336.74 65.37C336.32 64.95 336.11 64.41 336.11 63.75V5.25C336.11 4.59 336.32 4.05 336.74 3.63C337.22 3.21 337.76 3 338.36 3H346.73C347.63 3 348.29 3.24 348.71 3.72C349.19 4.2 349.52 4.56 349.7 4.8L366.26 35.31L383 4.8C383.12 4.56 383.39 4.2 383.81 3.72C384.29 3.24 384.98 3 385.88 3H394.25C394.91 3 395.45 3.21 395.87 3.63C396.29 4.05 396.5 4.59 396.5 5.25V63.75C396.5 64.41 396.29 64.95 395.87 65.37C395.45 65.79 394.91 66 394.25 66H385.07C384.47 66 383.96 65.79 383.54 65.37C383.12 64.95 382.91 64.41 382.91 63.75V27.39L371.48 48.81C371.18 49.35 370.79 49.83 370.31 50.25C369.83 50.67 369.2 50.88 368.42 50.88H364.19C363.41 50.88 362.78 50.67 362.3 50.25C361.82 49.83 361.43 49.35 361.13 48.81L349.7 27.39V63.75C349.7 64.41 349.49 64.95 349.07 65.37C348.65 65.79 348.14 66 347.54 66H338.36ZM426.231 66.9C423.051 66.9 420.201 66.3 417.681 65.1C415.161 63.84 413.151 62.16 411.651 60.06C410.151 57.96 409.401 55.62 409.401 53.04C409.401 48.78 411.111 45.42 414.531 42.96C418.011 40.5 422.571 38.82 428.211 37.92L440.001 36.21V34.59C440.001 32.25 439.461 30.45 438.381 29.19C437.301 27.93 435.411 27.3 432.711 27.3C430.731 27.3 429.141 27.69 427.941 28.47C426.741 29.25 425.811 30.27 425.151 31.53C424.671 32.31 423.981 32.7 423.081 32.7H414.531C413.871 32.7 413.361 32.52 413.001 32.16C412.641 31.74 412.491 31.26 412.551 30.72C412.551 29.7 412.941 28.5 413.721 27.12C414.501 25.74 415.701 24.39 417.321 23.07C418.941 21.69 421.011 20.55 423.531 19.65C426.051 18.75 429.141 18.3 432.801 18.3C436.581 18.3 439.821 18.75 442.521 19.65C445.221 20.55 447.381 21.81 449.001 23.43C450.621 25.05 451.821 26.94 452.601 29.1C453.381 31.2 453.771 33.48 453.771 35.94V63.75C453.771 64.41 453.561 64.95 453.141 65.37C452.721 65.79 452.181 66 451.521 66H442.701C442.101 66 441.591 65.79 441.171 65.37C440.751 64.95 440.541 64.41 440.541 63.75V60.42C439.761 61.56 438.711 62.64 437.391 63.66C436.071 64.62 434.481 65.4 432.621 66C430.821 66.6 428.691 66.9 426.231 66.9ZM429.831 57.54C431.811 57.54 433.581 57.12 435.141 56.28C436.701 55.44 437.931 54.15 438.831 52.41C439.731 50.67 440.181 48.48 440.181 45.84V44.31L431.811 45.66C428.571 46.2 426.201 47.01 424.701 48.09C423.201 49.17 422.451 50.49 422.451 52.05C422.451 53.19 422.781 54.18 423.441 55.02C424.161 55.86 425.091 56.49 426.231 56.91C427.371 57.33 428.571 57.54 429.831 57.54ZM470.428 66C469.828 66 469.318 65.79 468.898 65.37C468.478 64.95 468.268 64.41 468.268 63.75V21.45C468.268 20.85 468.478 20.34 468.898 19.92C469.318 19.44 469.828 19.2 470.428 19.2H479.248C479.848 19.2 480.358 19.44 480.778 19.92C481.258 20.34 481.498 20.85 481.498 21.45V25.05C482.998 23.19 484.828 21.75 486.988 20.73C489.208 19.71 491.758 19.2 494.638 19.2H498.508C499.108 19.2 499.618 19.41 500.038 19.83C500.458 20.25 500.668 20.79 500.668 21.45V29.19C500.668 29.85 500.458 30.39 500.038 30.81C499.618 31.23 499.108 31.44 498.508 31.44H490.588C487.948 31.44 485.878 32.19 484.378 33.69C482.878 35.13 482.128 37.2 482.128 39.9V63.75C482.128 64.41 481.918 64.95 481.498 65.37C481.078 65.79 480.538 66 479.878 66H470.428ZM513.229 66C512.569 66 512.029 65.79 511.609 65.37C511.189 64.95 510.979 64.41 510.979 63.75V4.34999C510.979 3.69 511.189 3.15 511.609 2.73C512.029 2.31 512.569 2.1 513.229 2.1H522.049C522.649 2.1 523.159 2.31 523.579 2.73C523.999 3.15 524.209 3.69 524.209 4.34999V34.77L538.069 20.73C538.549 20.31 538.969 19.95 539.329 19.65C539.749 19.35 540.379 19.2 541.219 19.2H551.389C551.989 19.2 552.469 19.41 552.829 19.83C553.189 20.19 553.369 20.64 553.369 21.18C553.369 21.42 553.309 21.69 553.189 21.99C553.069 22.29 552.859 22.53 552.559 22.71L535.189 40.17L554.809 62.58C555.349 63.06 555.619 63.54 555.619 64.02C555.619 64.56 555.409 65.04 554.989 65.46C554.629 65.82 554.179 66 553.639 66H543.199C542.299 66 541.639 65.85 541.219 65.55C540.859 65.25 540.439 64.89 539.959 64.47L524.209 46.83V63.75C524.209 64.41 523.999 64.95 523.579 65.37C523.159 65.79 522.649 66 522.049 66H513.229ZM584.414 66.9C577.514 66.9 572.024 64.98 567.944 61.14C563.924 57.3 561.794 51.72 561.554 44.4C561.554 43.92 561.554 43.29 561.554 42.51C561.554 41.67 561.554 41.01 561.554 40.53C561.794 35.91 562.844 31.95 564.704 28.65C566.564 25.29 569.174 22.74 572.534 21C575.894 19.2 579.824 18.3 584.324 18.3C589.364 18.3 593.564 19.35 596.924 21.45C600.344 23.49 602.894 26.31 604.574 29.91C606.314 33.45 607.184 37.53 607.184 42.15V44.22C607.184 44.82 606.944 45.33 606.464 45.75C606.044 46.17 605.534 46.38 604.934 46.38H575.504C575.504 46.44 575.504 46.56 575.504 46.74C575.504 46.86 575.504 46.98 575.504 47.1C575.564 49.02 575.924 50.79 576.584 52.41C577.304 53.97 578.294 55.23 579.554 56.19C580.874 57.15 582.434 57.63 584.234 57.63C585.734 57.63 586.964 57.42 587.924 57C588.884 56.58 589.664 56.07 590.264 55.47C590.924 54.87 591.404 54.36 591.704 53.94C592.244 53.34 592.664 52.98 592.964 52.86C593.324 52.68 593.864 52.59 594.584 52.59H603.944C604.544 52.59 605.024 52.77 605.384 53.13C605.804 53.43 605.984 53.88 605.924 54.48C605.864 55.44 605.354 56.64 604.394 58.08C603.494 59.46 602.144 60.84 600.344 62.22C598.544 63.54 596.294 64.65 593.594 65.55C590.954 66.45 587.894 66.9 584.414 66.9ZM575.504 38.19H593.144V38.01C593.144 35.85 592.784 33.99 592.064 32.43C591.404 30.81 590.414 29.55 589.094 28.65C587.774 27.75 586.184 27.3 584.324 27.3C582.464 27.3 580.874 27.75 579.554 28.65C578.234 29.55 577.214 30.81 576.494 32.43C575.834 33.99 575.504 35.85 575.504 38.01V38.19ZM642.105 66C638.385 66 635.205 65.4 632.565 64.2C629.925 62.94 627.915 61.02 626.535 58.44C625.215 55.86 624.555 52.62 624.555 48.72V29.82H617.535C616.875 29.82 616.335 29.61 615.915 29.19C615.495 28.77 615.285 28.23 615.285 27.57V21.45C615.285 20.79 615.495 20.25 615.915 19.83C616.335 19.41 616.875 19.2 617.535 19.2H624.555V4.34999C624.555 3.69 624.765 3.15 625.185 2.73C625.665 2.31 626.205 2.1 626.805 2.1H635.625C636.285 2.1 636.825 2.31 637.245 2.73C637.665 3.15 637.875 3.69 637.875 4.34999V19.2H649.125C649.725 19.2 650.235 19.41 650.655 19.83C651.075 20.25 651.285 20.79 651.285 21.45V27.57C651.285 28.23 651.075 28.77 650.655 29.19C650.235 29.61 649.725 29.82 649.125 29.82H637.875V47.64C637.875 49.92 638.265 51.72 639.045 53.04C639.885 54.3 641.325 54.93 643.365 54.93H649.935C650.535 54.93 651.045 55.14 651.465 55.56C651.885 55.98 652.095 56.49 652.095 57.09V63.75C652.095 64.41 651.885 64.95 651.465 65.37C651.045 65.79 650.535 66 649.935 66H642.105ZM665.707 66C665.107 66 664.597 65.79 664.177 65.37C663.757 64.95 663.547 64.41 663.547 63.75V21.45C663.547 20.79 663.757 20.25 664.177 19.83C664.597 19.41 665.107 19.2 665.707 19.2H674.707C675.367 19.2 675.907 19.41 676.327 19.83C676.747 20.25 676.957 20.79 676.957 21.45V63.75C676.957 64.41 676.747 64.95 676.327 65.37C675.907 65.79 675.367 66 674.707 66H665.707ZM665.437 12C664.837 12 664.327 11.79 663.907 11.37C663.487 10.95 663.277 10.41 663.277 9.75V2.55C663.277 1.89 663.487 1.35 663.907 0.929996C664.327 0.449998 664.837 0.209999 665.437 0.209999H674.887C675.547 0.209999 676.087 0.449998 676.507 0.929996C676.987 1.35 677.227 1.89 677.227 2.55V9.75C677.227 10.41 676.987 10.95 676.507 11.37C676.087 11.79 675.547 12 674.887 12H665.437ZM696.289 66C695.689 66 695.179 65.79 694.759 65.37C694.339 64.95 694.129 64.41 694.129 63.75V21.45C694.129 20.79 694.339 20.25 694.759 19.83C695.179 19.41 695.689 19.2 696.289 19.2H705.109C705.769 19.2 706.309 19.41 706.729 19.83C707.149 20.25 707.359 20.79 707.359 21.45V24.96C708.919 23.04 710.929 21.45 713.389 20.19C715.849 18.93 718.849 18.3 722.389 18.3C725.929 18.3 729.019 19.11 731.659 20.73C734.359 22.29 736.459 24.6 737.959 27.66C739.519 30.66 740.299 34.32 740.299 38.64V63.75C740.299 64.41 740.059 64.95 739.579 65.37C739.159 65.79 738.649 66 738.049 66H728.509C727.849 66 727.309 65.79 726.889 65.37C726.469 64.95 726.259 64.41 726.259 63.75V39.18C726.259 36 725.479 33.54 723.919 31.8C722.419 30 720.199 29.1 717.259 29.1C714.439 29.1 712.189 30 710.509 31.8C708.829 33.54 707.989 36 707.989 39.18V63.75C707.989 64.41 707.779 64.95 707.359 65.37C706.939 65.79 706.429 66 705.829 66H696.289ZM776.642 85.8C772.202 85.8 768.512 85.2 765.572 84C762.632 82.86 760.292 81.45 758.552 79.77C756.872 78.15 755.672 76.53 754.952 74.91C754.232 73.29 753.842 72.03 753.782 71.13C753.722 70.47 753.932 69.93 754.412 69.51C754.892 69.09 755.432 68.88 756.032 68.88H765.662C766.202 68.88 766.652 69 767.012 69.24C767.432 69.54 767.762 70.02 768.002 70.68C768.302 71.4 768.722 72.15 769.262 72.93C769.802 73.77 770.612 74.46 771.692 75C772.832 75.54 774.332 75.81 776.192 75.81C778.292 75.81 780.032 75.51 781.412 74.91C782.792 74.31 783.812 73.29 784.472 71.85C785.192 70.41 785.552 68.46 785.552 66V59.97C784.112 61.53 782.282 62.82 780.062 63.84C777.902 64.86 775.232 65.37 772.052 65.37C768.932 65.37 766.172 64.89 763.772 63.93C761.432 62.91 759.482 61.5 757.922 59.7C756.362 57.84 755.162 55.62 754.322 53.04C753.482 50.46 753.002 47.55 752.882 44.31C752.822 42.69 752.822 41.1 752.882 39.54C753.002 36.42 753.482 33.57 754.322 30.99C755.162 28.41 756.362 26.19 757.922 24.33C759.482 22.41 761.432 20.94 763.772 19.92C766.172 18.84 768.932 18.3 772.052 18.3C775.352 18.3 778.172 18.93 780.512 20.19C782.852 21.45 784.772 23.01 786.272 24.87V21.45C786.272 20.85 786.482 20.34 786.902 19.92C787.322 19.44 787.832 19.2 788.432 19.2H797.252C797.852 19.2 798.362 19.44 798.782 19.92C799.262 20.34 799.502 20.85 799.502 21.45L799.592 64.74C799.592 69.24 798.722 73.05 796.982 76.17C795.242 79.29 792.662 81.66 789.242 83.28C785.882 84.96 781.682 85.8 776.642 85.8ZM776.192 54.84C778.352 54.84 780.092 54.36 781.412 53.4C782.792 52.38 783.812 51.12 784.472 49.62C785.132 48.06 785.492 46.44 785.552 44.76C785.612 44.1 785.642 43.17 785.642 41.97C785.642 40.71 785.612 39.75 785.552 39.09C785.492 37.41 785.132 35.82 784.472 34.32C783.812 32.76 782.792 31.5 781.412 30.54C780.092 29.58 778.352 29.1 776.192 29.1C773.912 29.1 772.112 29.61 770.792 30.63C769.472 31.59 768.512 32.88 767.912 34.5C767.312 36.12 766.952 37.89 766.832 39.81C766.772 41.25 766.772 42.66 766.832 44.04C766.952 46.02 767.312 47.82 767.912 49.44C768.512 51.06 769.472 52.38 770.792 53.4C772.112 54.36 773.912 54.84 776.192 54.84Z" fill="white"/>
</svg>
